<svg xmlns="http://www.w3.org/2000/svg" id="Layer_1" x="0" y="0" viewBox="0 0 724.3 519" style="enable-background:new 0 0 724.3 519" xml:space="preserve"><style>.st0{fill:#ccc}.st1{fill:#3f3d56}.st2{fill:#0c8b55}.st4{fill:#a0616a}.st5{fill:#2f2e41}.st6{fill:#cbcbcb}</style><path class="st0" d="M424 471.5H161c-3.9 0-7-3.1-7-7l-12-447c0-3.9 3.1-7 7-7h263c3.9 0 7 3.1 7 7l2.2 81-2 .1-2.2-81c0-2.8-2.2-5-5-5H149c-2.8 0-5 2.2-5 5l12 447c0 2.8 2.2 5 5 5h263c2.8 0 5-2.2 5-5l-2.3-87 2-.1 2.3 87c0 3.9-3.1 7-7 7z"></path><path transform="rotate(-1.537 423.894 237.688) scale(.99996)" class="st0" d="M422.9 218.5h2v38.4h-2z"></path><path class="st0" d="M400.4 432.1H182.5c-3.3 0-6-2.7-6-6l-9.9-370.3c0-3.3 2.7-6 6-6h217.9c3.3 0 6 2.7 6 6l1.8 42.6-2 .1-1.8-42.6c0-2.2-1.8-4-4-4H172.6c-2.2 0-4 1.8-4 4l9.9 370.3c0 2.2 1.8 4 4 4h217.9c2.2 0 4-1.8 4-4l-1.3-48.6 2-.1 1.3 48.6c0 3.3-2.7 6-6 6z"></path><path transform="rotate(-1.516 400.383 238.491) scale(.99995)" class="st0" d="M399.4 219.5h2v38h-2z"></path><path class="st1" d="M458.4 219.5h-255c-3.8 0-7-3.1-7-6.9l-4-108.1c0-3.9 3.1-7 7-7h255c3.8 0 7 3.1 7 6.9l4 108.1c0 3.9-3.2 7-7 7zm-264-115 4 108.1c0 2.8 2.2 5 5 5h255c2.7 0 5-2.2 5-4.9l-4-108.1c0-2.8-2.2-5-5-5h-255c-2.8-.1-5 2.1-5 4.9zM506.4 378.5h-255c-3.8 0-7-3.1-7-6.9l-4-108.1c0-3.9 3.1-7 7-7h255c3.8 0 7 3.1 7 6.9l4 108.1c0 3.9-3.2 7-7 7zm-264-115 4 108.1c0 2.8 2.2 5 5 5h255c2.7 0 5-2.2 5-4.9l-4-108.1c0-2.8-2.2-5-5-5h-255c-2.8-.1-5 2.1-5 4.9z"></path><path class="st2" d="M311.9 280c-3.6 0-6.5 2.9-6.5 6.5s2.9 6.5 6.5 6.5h130c3.6 0 6.5-2.9 6.5-6.5s-2.9-6.5-6.5-6.5h-130zM311.9 311c-3.6 0-6.5 2.9-6.5 6.5s2.9 6.5 6.5 6.5h130c3.6 0 6.5-2.9 6.5-6.5s-2.9-6.5-6.5-6.5h-130zM311.9 342c-3.6 0-6.5 2.9-6.5 6.5s2.9 6.5 6.5 6.5h130c3.6 0 6.5-2.9 6.5-6.5s-2.9-6.5-6.5-6.5h-130zM263.9 121c-3.6 0-6.5 2.9-6.5 6.5s2.9 6.5 6.5 6.5h130c3.6 0 6.5-2.9 6.5-6.5s-2.9-6.5-6.5-6.5h-130zM263.9 152c-3.6 0-6.5 2.9-6.5 6.5s2.9 6.5 6.5 6.5h130c3.6 0 6.5-2.9 6.5-6.5s-2.9-6.5-6.5-6.5h-130zM263.9 183c-3.6 0-6.5 2.9-6.5 6.5s2.9 6.5 6.5 6.5h130c3.6 0 6.5-2.9 6.5-6.5s-2.9-6.5-6.5-6.5h-130z"></path><circle cx="274.4" cy="30.5" r="10" style="fill:#e6e6e6"></circle><g><path class="st2" d="m190.4 357.4-4.8-14.4 5.1-47.4c.1-1.3.7-2.6 1.6-3.6 1.1-1.2 2.7-1.9 4.4-2 2-.1 3.8.8 5 2.3.3.3.5.7.7 1 .6 1.1.8 2.3.7 3.6l-5.1 47.5-7.6 13z"></path><path class="st1" d="m194.7 290.7-5.5 51.5-2-.2 5.3-49.8c.6-.7 1.4-1.2 2.2-1.5zM202.2 293.5l-5.3 49.5-2-.2 5.5-51.3c.4.3.8.7 1.1 1.1.3.2.5.5.7.9zM198.7 290.5l-5.6 52-2-.2 5.6-52.1h.8l1.2.3zM192 354l-1.5 2.6-1.6-4.8c.8.1 2.1.9 3.1 2.2z"></path><path class="st4" d="M163.3 506.1h12.1l5.7-46.8h-17.8z"></path><path class="st5" d="M160.2 502.1h23.9c8.4 0 15.2 6.8 15.2 15.2v.5h-39.1v-15.7z"></path><path class="st4" d="m68.9 500.8 11.9 1.8 12.7-45.3-15.7-2.7z"></path><path class="st5" d="M66.4 496.4 90 500c8.3 1.3 14 9 12.8 17.3l-.1.5L64 512l2.4-15.6z"></path><path class="st4" d="m106.2 274.3 13.5 3.5-.9 21.8-.1 39.7c3.6 2.5 4.5 7.5 2 11.1-2.5 3.6-7.5 4.5-11.1 2s-4.5-7.5-2-11.1c.2-.2.3-.5.5-.7l-4.1-39.9 2.2-26.4z"></path><path class="st6" d="M103.9 249.3c.2-4.3 2.8-8.1 6.8-9.8 3.7-1.7 8.1-1 11.1 1.8 2.2 1.9 3.3 4.7 3.3 7.6 0 12.8-2.9 31.4-2.9 31.6v.3l-19.7 6.6 1.4-38.1z"></path><path class="st5" d="m139.1 285.6 30.1-7.8 13.9 46.9.5 174.5-23-.1-9.6-141.3-61.4 130.5-24.7-3 53.9-139.9s-3-24.7 6.4-37.1l-2-12.9 15.9-9.8z"></path><path class="st6" d="M118.8 297.3c-.9-1-1.2-2.4-1-3.7l-13.7-41.2c-1.3-3.9-.2-8.3 2.9-11.1l6-5.4 4-16.2 23.2 5.7-1.9 7.6 10.5-1.9 22.1 49.3-46.2 18.5h-2.3c-1.4.1-2.7-.5-3.6-1.6z"></path><path class="st4" d="m151 262.5 13.3-4.2 10.9 18.9 21.1 33.6c4.4.2 7.8 3.9 7.6 8.3-.2 4.4-3.9 7.8-8.3 7.6-4.4-.2-7.8-3.9-7.6-8.3 0-.3 0-.6.1-.9L163.3 286 151 262.5z"></path><path class="st6" d="M135.7 242.6c-2.2-3.7-2-8.4.5-11.9 2.3-3.4 6.3-5.1 10.4-4.4a10 10 0 0 1 6.8 4.7c6.9 10.8 14.4 28.1 14.5 28.3l.1.3-13.1 16.1-19.2-33.1z"></path><circle class="st4" cx="134.1" cy="198.3" r="18.4"></circle><circle class="st5" cx="101.5" cy="172.8" r="17.8"></circle><path class="st5" d="M86.2 187.5c8 5.7 19.1 4 24.8-4 1.2-1.6 2.1-3.4 2.6-5.3-1.2 9.7-10.1 16.6-19.8 15.4s-16.6-10.1-15.4-19.8c.1-1 .3-1.9.6-2.9-.8 6.4 2 12.8 7.2 16.6z"></path><path class="st5" d="M156.3 187.5c-3.1-5.6-4.3-7.9-8.3-11.2-3.5-3-7.9-3.9-11.4-1-10.7-4.6-23 .3-27.6 11-4.6 10.7.3 23 11 27.6 10.7 4.6 23-.3 27.6-11 1.1-2.6 1.7-5.5 1.7-8.3 0-.8-.1-1.6-.1-2.4 3-.5 4.1-4.3 7.1-4.7z"></path></g><g><path class="st4" d="M555.2 460.1h-18.1l5.9 47.3h12.2z"></path><path class="st5" d="M519.3 518.8c0-8.2 6.7-14.9 14.9-14.9h23.6v14.9h-38.5z"></path><path class="st4" d="m624.5 450.5-16.4 7.5 24.9 40.6 11.2-5.1z"></path><path class="st5" d="M616.3 518.8c-3.4-7.5-.1-16.3 7.4-19.7l21.5-9.8 6.2 13.5-35.1 16z"></path><path class="st4" d="M596 347.8c-4.3-3.5-5-9.9-1.5-14.2l10.9-30.6 18.3-3.1-14.4 32.7c.4.4.8.8 1.2 1.3 3.3 4.4 2.4 10.7-2 14.1-3.7 2.8-8.9 2.7-12.5-.2z"></path><path class="st5" d="M554.4 494.9h-11.7c-2.4 0-4.3-1.8-4.5-4.2l-12.4-170.6v-.8c.2-2.5 2.4-4.3 4.9-4l73.7 7.2c2.3.2 4 2.1 4.1 4.4l1.4 75.2c0 .4.1.8.2 1.2l27.8 72.1v.1c.9 2.3-.3 4.9-2.7 5.8l-11.9 4.4c-2.1.8-4.5-.1-5.6-2.2l-34.1-66.4c-.2-.4-.3-.7-.4-1.1l-5.8-28.1c-.3-1.5-1.5-2.6-3-2.8-1.9-.2-3.7 1.2-3.9 3.1l-11.8 102.7c0 2.3-2 4-4.3 4z"></path><circle class="st4" cx="560.3" cy="162.3" r="24.6"></circle><path class="st2" d="M530.5 321.2c3.1 2.2 38.6 25.5 78.9 6.9-.5-4.5-5.6-49.8-1.2-83.2 2.1-15.8-4.2-30.5-17.3-40.2-14.5-10.7-33.6-12.8-50-5.4-.7.3-1.3.6-2 .9l-8.4 121z"></path><path class="st2" d="M609.9 327.8c-1.3 0-2.5-.5-3.3-1.5l-5.4-5.9c-1.1-1.2-1.4-2.8-1-4.3l12.3-41.6-18.7-39.3c-.8-1.7-1-3.7-.6-5.5.6-2.3 2.1-4.2 4.1-5.3 4-2.2 9.1-.7 11.3 3.4l25.3 41.1c2 3.2 2.3 7.3.7 10.7L614 325.1c-.6 1.4-1.9 2.4-3.4 2.6-.3 0-.5.1-.7.1z"></path><path d="M548.7 322.4h-9.8l17.1-80.6 1 .1-3.8 76.2c-.1 2.5-2.1 4.3-4.5 4.3z" style="opacity:.2;enable-background:new"></path><path class="st4" d="M527.3 344.9c-5-2.5-6.9-8.6-4.4-13.6l4.3-32.2 17.3-6.8-7.3 35c.5.3 1 .7 1.4 1 4.2 3.6 4.6 10 1 14.2-3 3.5-8.1 4.5-12.3 2.4z"></path><path class="st2" d="M538.6 322.5h-.5l-10.5-1.2c-2.3-.3-4.1-2.3-4-4.7l4.3-104.8c.3-6.1 4.6-11.4 10.6-12.7 7.3-1.6 14.5 3 16.1 10.3l2.8 12.8v.1L543 318.5c-.2 2.4-2.1 4-4.4 4z"></path><path class="st5" d="M567.4 184.3c-2.2-.4-3.3-1-3.4-1.9-.1-1.5 0-3.1.3-4.6.2-.9.3-1.9.4-2.9.1-2.4-1-5.1-3.3-5.7-1.4-.2-2.8-.1-4 .5-1.2.5-2.5.7-3.9.7-4.1-.4-6.2-5.1-6.7-8.9l-.1-.6c-.4-3.4-.9-7.2-3.9-9.1-1.9-1.2-3.3-.8-5.1-.3-1.2.4-2.5.6-3.8.7-5 .1-5.2-5-5.5-10-.1-1.3-.1-2.7-.3-3.9-.1-1.3.7-2.4 2-2.7.8-.2 1.5-.7 1.9-1.4.1-.2.2-.5.2-.7.1-.7.6-1.4 1.3-1.7.8-.4 1.7-.4 2.4 0 .4.2.8.2 1.2.1.5-.2.8-.5 1-1 .6-1.3 1.6-2.3 2.9-2.8 2.3-.8 4.9-.4 7-.1 2.5.4 5.1.7 7.6.9 9.3.9 18.9 1.9 25 8.9 5.5 6.4 9.7 18 9.1 25.4-.2 2.8-1.5 6.6-3.8 11.4-2.9 6.2-9.1 10.2-15.9 10.2-.6-.2-1.6-.3-2.6-.5z"></path></g></svg>