<svg xmlns="http://www.w3.org/2000/svg" xmlns:xlink="http://www.w3.org/1999/xlink" id="Layer_1" x="0" y="0" viewBox="0 0 511.3 366.4" style="enable-background:new 0 0 511.3 366.4" xml:space="preserve"><style>.st1{fill:#3f3d56}.st2{fill:#d0cde1}.st3{fill:#fff}.st4{fill:#f2f2f2}.st5{fill:#0c8b55}.st7{opacity:.1;enable-background:new}.st9{fill:#a1616a}.st10{fill:#46455b}.st11{fill:#bbbdc8}</style><defs><circle id="SVGID_1_" cx="255.7" cy="183.2" r="171.8"></circle></defs><clipPath id="SVGID_2_"><use xlink:href="#SVGID_1_" style="overflow:visible"></use></clipPath><g style="clip-path:url(#SVGID_2_)"><path class="st1" d="M431.8 170.5H321.5v-62.8h110.3v62.8zm-109.2-1.1h108.1v-60.6H322.6v60.6zM170.5 198H45.4v-77.8h125.1V198zm-123.7-1.4h122.3v-75H46.8v75z"></path><path class="st2" d="m103.9 168.1-.1-1.6c-.4-3.2.7-6.8 3.7-10.3 2.7-3.2 4.2-5.5 4.2-8.2 0-3-1.9-5.1-5.7-5.1-2.2 0-4.3.6-6 1.9l-1.4-3.8c2-1.4 5.4-2.4 8.5-2.4 6.9 0 10 4.2 10 8.8 0 4.1-2.3 7-5.1 10.4-2.6 3.1-3.6 5.7-3.4 8.8l.1 1.6-4.8-.1zm-1.3 8.4c-.1-1.9 1.3-3.6 3.3-3.8h.3c2.1 0 3.5 1.6 3.5 3.8.1 2-1.4 3.6-3.4 3.7-2 .1-3.6-1.4-3.7-3.4v-.3zM373.4 146l-.1-1.2c-.3-2.5.6-5.3 2.9-8.1 2.1-2.5 3.3-4.3 3.3-6.4 0-2.4-1.5-4-4.5-4-1.7 0-3.3.5-4.7 1.5l-1.1-3c1.5-1.1 4.2-1.9 6.7-1.9 5.4 0 7.8 3.3 7.8 6.9 0 3.2-1.8 5.5-4 8.2-2.1 2.4-2.8 4.5-2.7 6.9v1.2l-3.6-.1zm-1 6.5c-.1-1.5 1.1-2.9 2.6-3h.2c1.6 0 2.8 1.2 2.8 3 .1 1.5-1.1 2.8-2.7 2.9-1.5.1-2.8-1.1-2.9-2.7v-.2zM147.4 49.6H220v69h-72.6z"></path><path class="st3" d="M155.7 57.8h56.1v42.9h-56.1z"></path><path class="st4" d="M155.6 105.8h30.5v1.6h-30.5z"></path><circle class="st1" cx="165.6" cy="79.3" r="6.4"></circle><circle class="st5" cx="183.7" cy="79.3" r="6.4"></circle><circle cx="193.7" cy="76.8" r="6.4" style="fill:#e6e6e6"></circle><circle class="st1" cx="183.7" cy="53.6" r="3.2"></circle><path class="st2" d="M64.2 202h98.6v93.8H64.2z"></path><path class="st3" d="M75.4 213.3h76.2v58.3H75.4z"></path><path class="st5" d="M92.1 222.8h26.7v26.7H92.1z"></path><path class="st1" d="M102.4 229.5v32.4h32.4v-32.4h-32.4zm31 31h-29.6v-29.6h29.6v29.6z"></path><path class="st4" d="M75.3 277.3h41.4v2.2H75.3z"></path><circle class="st1" cx="122.9" cy="200.9" r="4.4"></circle><path class="st2" d="M343 170.7h77.5v73.7H343z"></path><path class="st3" d="M351.8 179.5h59.9v45.8h-59.9z"></path><path class="st1" d="M375.3 215.4h12.9v3.8h-12.9zM359.7 185.7h44v1.6h-44zM359.7 190.8h44v1.6h-44zM359.7 196h44v1.6h-44zM359.7 201.2h44v1.6h-44zM359.7 206.4h44v1.6h-44z"></path><path class="st4" d="M351.8 229.9h32.6v1.7h-32.6zM351.8 234.1h45.4v1.7h-45.4z"></path><circle class="st1" cx="381.7" cy="175" r="3.4"></circle><ellipse class="st5" cx="314.4" cy="322.6" rx="14.5" ry="2.8"></ellipse><ellipse class="st1" cx="314.2" cy="321.4" rx="1.7" ry="2.2"></ellipse><ellipse class="st1" cx="314.2" cy="318.7" rx="1.7" ry="2.2"></ellipse><ellipse class="st1" cx="314.2" cy="316" rx="1.7" ry="2.2"></ellipse><ellipse class="st1" cx="314.2" cy="313.3" rx="1.7" ry="2.2"></ellipse><ellipse class="st1" cx="314.2" cy="310.6" rx="1.7" ry="2.2"></ellipse><ellipse class="st1" cx="314.2" cy="307.9" rx="1.7" ry="2.2"></ellipse><ellipse class="st1" cx="314.2" cy="305.2" rx="1.7" ry="2.2"></ellipse><path class="st5" d="m320.5 286.7.6-.9-4.4-.7h4.8c.9-2 1-4.3.2-6.4l-6.4 3.3 5.9-4.4c-2.2-3.9-7.2-5.2-11.1-3-3.9 2.2-5.2 7.2-3 11.1.2.4.4.7.7 1-.4.5-.7 1-.9 1.5l5.7 3-6.2-2.1c-.9 2.6-.4 5.5 1.3 7.6-2.8 3.5-2.2 8.6 1.4 11.4 3.5 2.8 8.6 2.2 11.4-1.4 2.3-2.9 2.3-7.1 0-10 2.3-2.9 2.3-7.1 0-10z"></path><path class="st7" d="M306 291.7c0 1.8.6 3.6 1.7 5-2.8 3.5-2.2 8.6 1.4 11.4 3.5 2.8 8.6 2.2 11.4-1.4 2.3-2.9 2.3-7.1 0-10 1.1-1.4-14.5-5.9-14.5-5z"></path><ellipse class="st5" cx="207.2" cy="347" rx="19.4" ry="3.7"></ellipse><ellipse class="st1" cx="206.9" cy="345.4" rx="2.3" ry="3"></ellipse><ellipse class="st1" cx="206.9" cy="341.8" rx="2.3" ry="3"></ellipse><ellipse class="st1" cx="206.9" cy="338.2" rx="2.3" ry="3"></ellipse><ellipse class="st1" cx="206.9" cy="334.5" rx="2.3" ry="3"></ellipse><ellipse class="st1" cx="206.9" cy="330.9" rx="2.3" ry="3"></ellipse><ellipse class="st1" cx="206.9" cy="327.3" rx="2.3" ry="3"></ellipse><ellipse class="st1" cx="206.9" cy="323.7" rx="2.3" ry="3"></ellipse><path class="st5" d="M215.4 298.9c.3-.4.6-.8.8-1.2l-5.9-1 6.4.1c1.2-2.7 1.3-5.8.2-8.6l-8.6 4.5 7.9-5.8c-3-5.2-9.6-6.9-14.8-3.9-5.2 3-6.9 9.6-3.9 14.8.2.4.5.8.8 1.2-.5.6-.9 1.3-1.2 2l7.7 4-8.2-2.8c-1.2 3.5-.5 7.3 1.7 10.2-3.7 4.7-2.9 11.5 1.8 15.2 4.7 3.7 11.5 2.9 15.2-1.8 3.1-3.9 3.1-9.5 0-13.4 3.1-3.9 3.1-9.5.1-13.5z"></path><path class="st7" d="M196 305.6c0 2.4.8 4.8 2.3 6.7-3.7 4.7-2.9 11.5 1.8 15.2 4.7 3.7 11.5 2.9 15.2-1.8 3.1-3.9 3.1-9.5 0-13.4 1.5-1.8-19.3-7.9-19.3-6.7z"></path><linearGradient id="SVGID_3_" gradientUnits="userSpaceOnUse" x1="306.933" y1="-53.028" x2="306.933" y2="257.444" gradientTransform="matrix(1 0 0 -1 -59 288.43)"><stop offset="0" style="stop-color:gray;stop-opacity:.25"></stop><stop offset=".54" style="stop-color:gray;stop-opacity:.12"></stop><stop offset="1" style="stop-color:gray;stop-opacity:.1"></stop></linearGradient><path d="M309.4 182.6c-1.5-7.7-3.1-15.3-3.4-23.1-.2-4.6.2-9.3-.4-13.9-.3-2.3-.8-4.5-1.3-6.7l-2-8.8c.2-1.7.2-3.4-.2-5.1-.2-.9-.5-1.7-.8-2.6 1.9-2.7 3.5-5.6 4.7-8.6.5-1.4 1-2.8.8-4.3-.4-2.8-3.1-4.6-5.6-6-1.5-.8-3.1-1.6-4.9-1.8-2.5-.1-4.9 1-6.4 2.9-.4-2.3-.3-4.6.4-6.8-1.5-.7-3-1.3-4.5-1.9-.2-2-.3-4-.2-6 0-2.4.1-4.8.2-7.2 8.4-3.1 13.9-11 14-19.9v-.7c2.2-4 2.8-8.8 1.5-13.3-1.7-5.7-6.1-10.5-11.4-13.4-5.3-2.9-11.4-4.2-17.5-4.4-2-.1-4.1 0-6.1.4-2.2.5-4.2 1.3-6.2 2.3-3 1.4-6.1 2.9-8.4 5.4-3.9 4.2-4.8 10.4-4.4 16.1.6 7.5 3.1 14.7 5.9 21.6 1 2.3 2 4.6 3.6 6.6 1.2 1.5 3.3 1.6 5 .5-.1 1.8-.2 3.7-.1 5.5-3.1-.1-6.2.4-8.7 2.2-1.1.8-2.2 2.1-2 3.5 1.6 0 2.9 1.2 3.1 2.8.1 1.2-.5 2.4-1.1 3.4-.3.5-.5.9-.8 1.4-2.5 2.6-5 5.9-5.2 9.2-.4 0-.8.1-1.2.2-2.2.4-4.5 1.2-6.7 1.8l-15.9 4.2-3.9 1.1-6.3 1.7c-4 1.1-8.1 2.1-11.7 4.3-3.6 2.1-6.6 5.5-7.3 9.5-.4 2-.1 4.1-.6 6.1 0 .1 0 .2-.1.3-.4 1.3-.9 2.5-1.5 3.6-3.6 7.5-6.1 15.7-5.6 24 .3 5.1 1.7 10 3.1 14.9 1.5 5 2.9 10 4.3 15 .9 3.6 2.1 7.1 3.6 10.5 2.5 5.5 6.1 10.3 10.6 14.2 1.3 1.1 2.7 2.1 4.2 2.9 2.3 1 4.9 1.4 7.5 1.2.7 0 1.4-.1 2-.2 4.9-.8 9.5-3.2 13.8-5.8 1.8-1.1 3.5-2.3 5.2-3.5.2 1.9.6 3.8 1.1 5.7.4 1.3.8 2.6.7 3.9-.2 1.8-1.6 3.4-2.2 5.1-1.5 3.7 0 7.7.3 11.7.2 3.7-.7 7.3-1.4 11-1.2 6-1.9 12.2-2.1 18.3 0 2.3-.2 4.7-.5 7-.5 3.3-1.8 6.4-2 9.7-.3 5.1 1.9 10.2 1.7 15.3-.2 6-3.8 11.9-2.5 17.8.2.7.6 1.6 1.3 1.8l-.3.3c-1 .9-2 2.7-.8 3.4.3.2.6.3.9.3 1.8.4 3.6.7 5.4 1 0 1.7.2 3.3.6 4.9.3.2.7.4 1 .6-.3.7-.2 1.3.4 1.7.3.2.6.3.9.3 14.8 3.1 29.9 4.3 45 3.7 2.7-.1 5.5-.3 7.8-1.7s3.9-4.3 2.8-6.7c-1-2.1-3.5-3.1-5.8-3.8l-2.7-.8c.7-1.2.8-2.7.2-4-1-2.1-3.5-3.1-5.8-3.8l-6.2-1.9c-.8-.2-1.6-.6-2.2-1.1-.4-.4-.8-.9-1.2-1.4-.9-1-2.1-1.7-3.4-2.1-.1-1.3 0-2.6.1-3.9l1.7-20.8c.4-4.7.8-9.5-.3-14.1-.4-1.9-1.1-3.8-.7-5.7.7-3.1 3.9-4.8 6.1-7 3.3-3.4 4.3-8.3 5.1-13 3.1-19.2 4.1-38.8 2.9-58.2 6.9-1.9 14-3.1 21.1-3.4 1.2-.1 1.8-.6 2.2-1.8.2-1.2 0-2.4-.3-3.6zm-34.3 1c0-.2.1-.4.1-.6l.5.6h-.6z" style="fill:url(#SVGID_3_)"></path><path class="st9" d="M263.9 78.2c-.1 2-.9 3.9-1.1 5.9-.3 2.2 0 4.4-.2 6.6-.1 2.2-.8 4.5-2.5 6 9.8.8 19.4 2.9 28.7 6.2-2.8-3.4-2.9-8.3-2.8-12.7.1-6.5.2-13.2 2.3-19.4-6.4-1.4-13-1.5-19.4-.3-1.4.3-5.6.1-6.2 1.4-.4 1.1 1.3 4.9 1.2 6.3z"></path><path class="st7" d="M263.9 78.2c-.1 2-.9 3.9-1.1 5.9-.3 2.2 0 4.4-.2 6.6-.1 2.2-.8 4.5-2.5 6 9.8.8 19.4 2.9 28.7 6.2-2.8-3.4-2.9-8.3-2.8-12.7.1-6.5.2-13.2 2.3-19.4-6.4-1.4-13-1.5-19.4-.3-1.4.3-5.6.1-6.2 1.4-.4 1.1 1.3 4.9 1.2 6.3z"></path><path class="st10" d="M275.5 316.2c.3.5.7 1 1.1 1.4.6.5 1.4.9 2.2 1.1l6 1.9c2.2.7 4.7 1.6 5.7 3.8 1.1 2.4-.5 5.3-2.7 6.7-2.3 1.4-5 1.6-7.6 1.7-14.8.6-29.5-.7-44-3.7-.3 0-.6-.1-.8-.3-1.1-.8-.2-2.5.8-3.4 3.9-3.7 8.1-7.5 13.4-8.4 2.8-.5 5.6-.3 8.3-.9 2-.5 3.9-1.3 5.8-1.8 3.6-1 9.1-1.3 11.8 1.9z"></path><path class="st7" d="M275.5 316.2c.3.5.7 1 1.1 1.4.6.5 1.4.9 2.2 1.1l6 1.9c2.2.7 4.7 1.6 5.7 3.8 1.1 2.4-.5 5.3-2.7 6.7-2.3 1.4-5 1.6-7.6 1.7-14.8.6-29.5-.7-44-3.7-.3 0-.6-.1-.8-.3-1.1-.8-.2-2.5.8-3.4 3.9-3.7 8.1-7.5 13.4-8.4 2.8-.5 5.6-.3 8.3-.9 2-.5 3.9-1.3 5.8-1.8 3.6-1 9.1-1.3 11.8 1.9z"></path><path class="st11" d="M245.2 186.3c-3 7.8-3.2 16.5-.5 24.4-2-.2-2.9 2.5-2.8 4.5.1 2.8.5 5.6 1.3 8.3.4 1.3.8 2.6.7 3.9-.2 1.8-1.5 3.4-2.2 5.1-1.4 3.7 0 7.7.3 11.7.2 3.7-.6 7.3-1.4 10.9-1.2 6-1.9 12.2-2.1 18.3 0 2.3-.2 4.7-.5 7-.5 3.3-1.7 6.4-2 9.7-.3 5.1 1.8 10.1 1.6 15.3-.2 6-3.7 11.9-2.5 17.8.2.8.6 1.8 1.5 1.8 8.7.1 16.8-2.3 25.3-1 .9-19.8 1.7-39.7 5.6-59.2 3.4-17.3 9.3-34.5 8.7-52.1-.3-10.1-2.7-20-4.2-30-8.9-2.1-18.5-.8-26.8 3.6z"></path><path class="st7" d="M245.2 186.3c-3 7.8-3.2 16.5-.5 24.4-2-.2-2.9 2.5-2.8 4.5.1 2.8.5 5.6 1.3 8.3.4 1.3.8 2.6.7 3.9-.2 1.8-1.5 3.4-2.2 5.1-1.4 3.7 0 7.7.3 11.7.2 3.7-.6 7.3-1.4 10.9-1.2 6-1.9 12.2-2.1 18.3 0 2.3-.2 4.7-.5 7-.5 3.3-1.7 6.4-2 9.7-.3 5.1 1.8 10.1 1.6 15.3-.2 6-3.7 11.9-2.5 17.8.2.8.6 1.8 1.5 1.8 8.7.1 16.8-2.3 25.3-1 .9-19.8 1.7-39.7 5.6-59.2 3.4-17.3 9.3-34.5 8.7-52.1-.3-10.1-2.7-20-4.2-30-8.9-2.1-18.5-.8-26.8 3.6z"></path><path class="st10" d="M283.5 324.8c.3.5.7 1 1.1 1.4.6.5 1.4.9 2.2 1.1l6 1.9c2.2.7 4.7 1.6 5.7 3.8 1.1 2.4-.5 5.3-2.7 6.7-2.3 1.4-5 1.6-7.6 1.7-14.8.6-29.5-.7-44-3.7-.3 0-.6-.1-.8-.3-1.1-.8-.2-2.5.8-3.4 3.9-3.7 8.1-7.5 13.4-8.4 2.8-.5 5.6-.3 8.3-.9 2-.5 3.9-1.3 5.8-1.8 3.7-1 9.2-1.3 11.8 1.9z"></path><path class="st11" d="M248.2 186.9c-2.2 2.9-2.9 6.7-2.6 10.3.3 3.6 1.5 7 2.7 10.5-1.6 1.5-1.3 4-1 6.1.8 7.9-2 15.9-1.6 23.8.2 3.3.9 6.6 1.1 10 .2 3.7-.3 7.3-.7 11-2.8 23.3-4.3 46.7-4.6 70.1 0 2.2 0 4.4.6 6.4 4.2 3.1 9.4 3.5 14.5 2.3 5.1-1.1 9.7-3.7 14.2-6.2 2.5-1.3 4.8-2.8 7-4.5.7-.5 1.2-1.2 1.4-1.9.5-2.3-2.7-3.3-4.5-4.8-2.7-2.2-2.6-6.2-2.3-9.6l1.7-20.8c.4-4.7.7-9.5-.3-14.1-.4-1.9-1.1-3.8-.7-5.6.7-3 3.8-4.7 5.9-7 3.2-3.4 4.2-8.3 5-13 3.5-22.1 4.3-44.5 2.2-66.7-4.2 1.5-9.2.7-13.7 1s-8.9 1.8-13.4 2c-3.9-.2-8.6-2.3-10.9.7z"></path><circle class="st9" cx="278.6" cy="63.2" r="21.2"></circle><path class="st10" d="M290.6 98.1c-6.8-3.1-13.9-5.6-21.2-7.3-5.1-1.2-11-2-15.3 1.1-1.1.8-2.2 2.1-1.9 3.5 1.6.1 2.9 1.2 3.1 2.8.1 1.2-.5 2.4-1.1 3.4l-5 9.2c-.9 1.7-1.8 3.4-2.4 5.2-1 2.9-1.2 6-1.4 9.1l-.6 8.3c-.4 5.3-.7 10.5-.2 15.8.4 4 1.2 7.9.6 11.9-.5 3.2-1.8 6.1-2.5 9.2-1.4 5.9-.8 12.3-3.5 17.7 1.1-.5 2.4-.6 3.6-.3 8.3 1.5 14.9 8.1 22.9 10.6 2-3 4.8-5.2 7.1-7.9 1.7-2.1 2.8-4.6 3.3-7.2 1.7 2.3 3.2 4.1 4.2 6.8.2.6.5 1.2.9 1.7 1.1 1.1 2.9.6 4.3.2 7.1-2.1 14.5-3.4 21.9-3.7 1.2-.1 1.8-.6 2.1-1.8.4-1.1.2-2.4-.1-3.5-1.4-7.7-3-15.3-3.3-23.1-.2-4.6.2-9.3-.4-13.8-.3-2.2-.8-4.5-1.3-6.7l-4.1-18.2c-.2-1-1.3-1.7-1.8-2.6-1.9-3.8-5.5-6.6-7.3-10.4-1.4-3.2-1.6-6.7-.6-10z"></path><path class="st1" d="M260.8 71.7c0-.3 0-.6.2-.8.2-.2.5-.4.8-.5 1.8-.8 2.8-2.7 2.4-4.7l2-.4.1-7c3-1.7 7.1-.4 9.9-2.3 1.6-1.1 2.4-3 3.4-4.6 1-1.7 2.4-3.3 4.3-3.5-1.3 3.4-1.1 7.2.7 10.4 2-1 3.7-2.6 4.8-4.5l1 5.7c0 .4.2.7.4.9.5.4 1.2-.1 1.7-.6l2.6-2.6c1.1 2.7 1.8 5.6 2.2 8.6 4.3-4.1 5.6-10.8 4-16.5s-5.9-10.5-11.1-13.4c-5.2-2.9-11.2-4.2-17.1-4.4-2-.1-4 0-6 .4-2.1.5-4.1 1.3-6.1 2.3-3 1.4-6 2.9-8.2 5.3-3.9 4.2-4.7 10.4-4.3 16.1.6 7.5 3 14.7 5.8 21.6.9 2.3 1.9 4.6 3.5 6.6 2.3 2.9 8 .5 7.3-5.3-.5-4.2-4.3-2.6-4.3-6.8z"></path><path class="st5" d="M268.9 185.4c-7.2 14.6-18.2 27.1-31.8 35.9-4.1 2.7-8.6 5-13.4 5.8-.7.1-1.3.2-2 .2-2.5.2-5-.2-7.3-1.2-1.5-.8-2.9-1.7-4.2-2.9-4.5-3.9-8-8.8-10.4-14.2-1.4-3.4-2.6-6.9-3.5-10.5l-4.2-15c-1.4-4.9-2.8-9.8-3-14.9-.5-8.3 2-16.4 5.5-24 .6-1.2 1.1-2.4 1.4-3.6 0-.1 0-.2.1-.3.4-2 .2-4.1.6-6.1.7-4 3.7-7.4 7.1-9.5s7.5-3.2 11.4-4.3l6.2-1.7 3.8-1 15.6-4.2c2.2-.6 4.3-1.3 6.5-1.7 2.4-.5 2.4-.2 2.6 2.2.4 4.3.2 8.6 1.1 12.9.9 4.1 2.4 8 3.5 12.1 2.9 10.1 3.4 20.8 5.7 31.1.5 2.3 1.2 4.9 3.1 6.3 2.2 1.7 5.8 2.1 6.4 4.8.2 1.5-.3 2.7-.8 3.8z"></path><path class="st7" d="M223.6 227.2c-.7.1-1.3.2-2 .2-2.5.2-5-.2-7.3-1.2-1.5-.8-2.9-1.7-4.2-2.9-4.5-3.9-8-8.8-10.4-14.2-1.4-3.4-2.6-6.9-3.5-10.5l-4.2-15c-1.4-4.9-2.8-9.8-3-14.9-.5-8.3 2-16.4 5.5-24 .6-1.2 1.1-2.4 1.4-3.6 0-.1 0-.2.1-.3 9.4 1.6 20.6 19.6 26.4 43.1 4.3 17.6 4.5 33.8 1.2 43.3zM240.5 165.4l-1.6.3c-1.6-4.2-3.2-8.5-5.1-12.6-1-2.2-2-4.3-2.9-6.5-3.1-8.5-2.6-18.7-8.3-25.7-.4-.5-.9-1-1.4-1.4l3.8-1c3.3 5.3 5.7 11.2 7 17.3.6 3 1 6.1 2 8.9.9 2.2 1.8 4.3 2.9 6.4 2.3 4.4 3.9 9.3 3.6 14.3z"></path><path class="st5" d="M255.8 100.7c4.1-3.5 9.8-5.5 15.1-4.6 3.1.5 6.1 1.9 8.9 3.4 5.5 2.9 10.9 6.3 14.9 11.1 2.4 3 4.3 6.3 5.9 9.9.7 1.5 1.3 3.2 1.7 4.8 1.4 6.5-2 12.9-5.4 18.7l-6.4 11.1c-2.9 5.1-5.9 10.2-9.7 14.7-1.8 2.1-3.7 4-5.6 5.9l-8.4 8.3c-.2.2-.4.3-.6.4-.4 0-.7-.1-1-.4l-2.8-2.2c2.6-1.8 5-3.8 7.1-6 3.7-3.8 6.7-8.1 9.6-12.5l9.3-13.5c2.7-3.9 5.6-8.3 5.2-13.1-.1-2.3-1-4.5-1.9-6.6-1.6-3.7-3.3-7.4-5.2-11.1-2.1-4.1-4.4-8.1-7.4-11.5-3-3.4-6.9-6.3-11.3-7.6-1.3-.4-2.7-.6-4.1-.4-3 .5-5.2 3.1-7.1 5.5l-5.8 7.5c-1.3 1.7-2.5 3.7-2.6.4 0-4.5 4.6-9.3 7.6-12.2z"></path><path class="st9" d="M257.6 151c1.1 4.4 2.8 9.4 7.1 11.1 3 1.2 6.5.2 9.2-1.7 2.6-1.9 4.5-4.7 6.2-7.5 1.4-2.5 3-4.9 4.7-7.2 3.4-4.3 8-7.7 10.3-12.6.7-1.5 1.1-3.1 1.9-4.5.8-1.3 1.8-2.6 2.8-3.7 2.6-3.3 4.8-6.9 6.3-10.9.5-1.4 1-2.8.8-4.3-.4-2.8-3.1-4.6-5.5-6-1.5-.8-3.1-1.6-4.8-1.8-2.5-.2-4.9 1.1-6.5 3.1-1.5 2-2.3 4.5-2.4 7-.2 3.1.4 6.2-.6 9.1-.5 1.4-1.3 2.6-2.2 3.7-3.2 4.3-7.2 8-11.8 10.9-.1-2.2-.6-4.3-1.4-6.3-.4-1.1-9 0-10.1.2-2.2.3-6.5.6-7.9 2.7-1.4 2.1.3 5.6.9 7.8l3 10.9z"></path><path class="st10" d="M257.4 102.8c-1.3 1.1-2.5 2.2-3.5 3.4-2.5 3.1-3.8 7.1-4.1 11-.3 4 .2 8 .9 11.9.6 3.5 1.4 7 2.2 10.5.2-2.6 2.4-4.8 4.8-5.7 2.5-.9 5.2-.8 7.8-.5 3.4.5 6.7 1.5 9.8 2.8l1.2-17c.3-2.3.2-4.6 0-6.9-.8-4.3-3.4-8-7.1-10.3-4.7-2.6-7.9-2.8-12 .8z"></path></g></svg>