<svg xmlns="http://www.w3.org/2000/svg" id="Layer_1" x="0" y="0" viewBox="0 0 1318.7 281.3" style="enable-background:new 0 0 1318.7 281.3" xml:space="preserve"><style>.st0{fill:#0c8b55}.st1{fill:#50c776}</style><path class="st0" d="M54.9 157.8h54.9V103c0-11.5-3.6-22.8-10.3-32.1-6.9-9.6-17-16.9-28.4-20.4-11.7-3.6-24.5-3.2-35.9 1.2-11 4.2-20.6 12.1-26.8 22.1C1.9 84-.9 96.4.3 108.5c1.2 11.9 6.4 23.3 14.6 32S34 155.1 45.8 157c3 .5 6 .8 9.1.8z"></path><path class="st1" d="M54.9 171.5H3.4c-.9 0-2.2-.2-3.1 0-.4.1-.3.1-.3.6v42.3c0 8.7-.4 17.4 1.8 25.8 3.9 15 14.3 27.9 28 34.9 14.1 7.3 31.1 8 45.8 2 14.3-5.8 25.7-17.8 30.9-32.3 5.4-14.9 3.9-31.9-4-45.7-7.7-13.4-20.9-23.2-36-26.5-3.8-.7-7.7-1.1-11.6-1.1z"></path><path class="st0" d="M178.4 48c-11.3 0-22.4 3.5-31.6 10-9.1 6.4-16.1 15.6-19.9 26-3.9 10.7-4.4 22.7-1.3 33.7 3 10.7 9.3 20.4 17.8 27.4 8.7 7.2 19.5 11.6 30.7 12.5 11.4.9 22.9-1.8 32.6-7.7 9.5-5.7 17.1-14.3 21.7-24.3 4.7-10.4 6.1-22.2 3.9-33.4-2.2-10.9-7.7-21.1-15.8-28.8-8.1-7.8-18.4-12.9-29.5-14.7-2.8-.5-5.7-.7-8.6-.7zM178.4 171.5c-11.3 0-22.4 3.5-31.6 10-9.1 6.4-16.1 15.6-19.9 26-3.9 10.7-4.4 22.7-1.3 33.7 3 10.7 9.3 20.4 17.8 27.4 8.7 7.2 19.5 11.6 30.7 12.5 11.4.9 22.9-1.8 32.6-7.7 9.5-5.7 17.1-14.3 21.7-24.3 4.7-10.4 6.1-22.2 3.9-33.4-2.2-10.9-7.7-21.1-15.8-28.8-8.1-7.8-18.4-12.9-29.5-14.7-2.8-.5-5.7-.7-8.6-.7zM382.2 48c-10.1 0-20.3 1.7-29.7 5.5-8.6 3.4-16.4 8.6-22.9 15.1-3.7 3.7-7.1 7.8-9.9 12.2V48.5c0-.6-.1-.5-.8-.5h-27c-.1 0-.8-.1-.9 0-.2.1 0 .9 0 1.1v230.6c0 .2-.2 1.3 0 1.4.2.2 1.5 0 1.8 0h25.5c.3 0 1.4.2 1.6 0 .1-.1 0-1 0-1.1v-90.8c6.2 9.4 14.4 17.5 24.3 23.1 10.4 6 22.3 9 34.3 9.5 11.2.5 22.5-1.2 33-5.2 10-3.8 19.2-9.5 27-16.8 7.9-7.4 14.4-16.3 19.1-26 4.9-10.3 7.7-21.5 8.5-32.9.7-11.6-.6-23.3-4.2-34.4a87.94 87.94 0 0 0-15.7-28.6c-6.8-8.2-15.2-15.2-24.6-20.3-9.5-5.2-20.1-8.4-30.9-9.5-3.1 0-5.8-.1-8.5-.1zm-3.6 146.3c-12.2 0-24.4-3.5-34.4-10.6-9.7-6.8-17-16.5-21-27.7-4.2-11.8-4.7-25.1-1.5-37.2 3-11.5 9.5-21.9 18.6-29.5 9.3-7.7 20.9-12.3 32.9-13.3 12.3-1 24.9 1.6 35.5 7.9 10.2 6 18.3 15.2 23.1 25.9 5.1 11.5 6.5 24.7 4.1 37.1-2.2 11.8-8 22.8-16.6 31.2-8.6 8.3-19.8 13.7-31.6 15.5-2.9.4-6 .7-9.1.7zM689.7 170.8c-4.5 7.4-11.2 13.4-18.9 17.4-9.1 4.8-19.5 6.8-29.8 6.7-9.1-.1-18.2-1.7-26.5-5.3-7.7-3.3-14.6-8.3-20.1-14.7-5.7-6.7-9.5-14.8-11.6-23.3-.3-1.1-.5-2.3-.7-3.4h137.2c.3 0 .8.1 1.2 0h.2c.2-.1-.8 2.3.1-.4.3-1.1.3-2.4.5-3.5.5-4.2.6-8.4.4-12.6-.2-6.4-1.1-12.8-2.6-19.1-2.9-12.1-8.2-23.6-15.8-33.5-7.4-9.7-17-17.7-28-23.1-11.9-5.8-25.2-8.4-38.4-8-12.9.3-25.8 3.1-37.4 8.7-10.8 5.2-20.4 12.8-27.9 22.1-7.6 9.4-13 20.5-16 32.2-3.2 12.4-3.8 25.6-1.9 38.3 1.7 11.9 5.8 23.5 12.1 33.7 6.2 9.9 14.6 18.4 24.4 24.8 10.4 6.8 22.3 11 34.5 13 14.2 2.2 29.1 1.7 43-2.2 12.9-3.6 24.9-10.2 34.6-19.5 4.5-4.3 8.5-9.1 11.8-14.4-7.1-4.1-14.3-8.1-21.4-12.2-.9-.6-1.9-1.1-3-1.7zm-50.3-95.7c9.5 0 19.1 2.3 27.4 7.1 8.7 5.1 15.7 12.7 20.1 21.8 2.9 6 4.8 12.5 5.8 19.1H583.8c-.4 0-1.1.2-1.5 0h-.2c1.7-10.5 5.8-20.6 12.7-28.7 6.7-7.9 15.6-13.6 25.5-16.6 6.2-1.8 12.7-2.7 19.1-2.7z"></path><path class="st0" d="M867.7 48h-32.5c-.3 0-.9-.1-1.2 0-.3.1-.3.3-.5.5-.5.7-1 1.5-1.5 2.2-4.5 6.8-9 13.6-13.5 20.3-5.8 8.7-11.6 17.4-17.3 26.1-2.2 3.3-4.4 6.7-6.6 10-.7 1.1-1.4 2.1-2.1 3.2-.3.5-.7 1.4-1.2 1.8-.1 0-.1.2-.1.2-2.8-4.2-5.5-8.3-8.3-12.5L765.8 74c-4.9-7.3-9.7-14.6-14.6-22-.6-.9-1.3-1.9-1.9-2.8-.2-.3-.5-1.1-.8-1.3-.3-.2-1.1 0-1.5 0h-32.7c2 3 4.1 5.9 6.1 8.9 4.8 7 9.7 14.1 14.5 21.1 5.8 8.5 11.6 16.9 17.4 25.4 5 7.3 10 14.5 15 21.8 1.6 2.3 3.2 4.6 4.8 7 .5.7.9 1.4 1.4 2.1.1.2.6.7.7 1 0 .4-.9 1.3-1.2 1.7l-4.2 5.7c-4.8 6.6-9.7 13.2-14.5 19.8-6 8.2-12.1 16.5-18.1 24.7-5.4 7.4-10.9 14.8-16.3 22.3-3 4-5.9 8.1-8.9 12.1-.1.2-.3.4-.4.6h32.8c.2 0 .7.1.9 0 .2-.1.4-.5.6-.7.6-.8 1.1-1.6 1.7-2.3 5-6.8 9.9-13.7 14.9-20.5 6.3-8.6 12.5-17.3 18.8-25.9 2.4-3.3 4.7-6.5 7.1-9.8.8-1.1 1.5-2.1 2.3-3.2.4-.5.8-1.3 1.2-1.7.1 0 .1-.2.2-.2 2.9 4.1 5.9 8.2 8.8 12.2 6.1 8.5 12.2 17 18.4 25.5 5.3 7.3 10.5 14.6 15.8 21.9.7 1 1.5 2 2.2 3.1.3.4.6 1.2 1.1 1.5.3.2.7.1 1.1.1h32.7c-2.1-2.8-4.1-5.7-6.2-8.5-4.9-6.8-9.9-13.6-14.8-20.5-6-8.3-12-16.6-18.1-24.9-5.3-7.3-10.5-14.5-15.8-21.8-1.8-2.5-3.6-4.9-5.4-7.4-.9-1.2-2-2.5-2.8-3.8-.3-.6.1-.7.5-1.3 1.2-1.7 2.3-3.4 3.5-5.1 4.5-6.5 8.9-13 13.4-19.5 5.8-8.4 11.5-16.8 17.3-25.2 5.2-7.6 10.5-15.3 15.7-22.9 2.9-4.2 5.7-8.4 8.6-12.6.3-.2.5-.4.6-.6z"></path><path class="st0" d="M1001.7 80.8c-7.5-11.4-18-20.8-30.5-26.3-13.2-5.9-28.2-7.6-42.4-5.8-12.9 1.6-25.4 6.4-36.1 13.8-10.7 7.3-19.5 17.2-25.9 28.5-6.7 11.9-10.5 25.3-11.2 38.9-.8 13.9 1.5 27.9 7 40.7 5.1 12 12.9 22.8 22.8 31.4 9.8 8.5 21.5 14.6 34.1 17.8 13.7 3.4 28.6 3.3 42.2-.6 13.3-3.8 25.2-11.4 34.1-21.8 2.2-2.5 4.1-5.2 6-7.9v31.6c0 .2-.1 1.1 0 1.2.1.1 1 0 1.2 0h26.5c.2 0 1.1.1 1.2 0v-.2c.2-.5 0-1.3 0-1.8V50c0-.4.2-1.3 0-1.7-.2-.4-.8-.2-1.3-.2h-26.5c-.2 0-.9-.1-1 0-.1.2 0 1.1 0 1.3v27.5c-.2 1.3-.2 2.6-.2 3.9zm-58.9 113.5c-12.2 0-24.3-3.6-34.3-10.7-9.7-6.9-17-16.7-20.9-27.9-4.2-11.9-4.5-25.3-1.2-37.5 3.2-11.5 9.8-21.9 19-29.4 9.4-7.7 21.1-12.1 33.2-12.8 12.3-.8 24.8 2 35.4 8.4 10.1 6.1 18 15.3 22.7 26.1 5 11.5 6.2 24.7 3.8 37-2.3 11.7-8.1 22.6-16.7 30.9-8.7 8.3-19.9 13.6-31.7 15.3-3.1.3-6.2.6-9.3.6zM1229.1 48c-16.1 0-31.9 5.6-43.4 17.1-3.3 3.3-6.2 7-8.6 11-3.5-6.5-8.2-12.4-14-17-5.8-4.6-12.6-7.7-19.7-9.5-14.9-3.6-31.8-1.9-45.1 5.9-7.8 4.6-14.3 11.2-19.2 18.9V49.9c0-.4.2-1.4 0-1.7-.2-.4-2-.2-2.5-.2H1052.3c-.3 0-1.8-.2-2 0-.1.1 0 .8 0 1V220.9c0 .2-.1.9 0 1 .2.2 1.7 0 2 0H1076.6c.4 0 2.2.2 2.5 0 .2-.2 0-1.3 0-1.6v-94.7c0-15.7 4.2-32.7 17.4-42.6 5.2-3.9 11.4-6.3 17.9-7.2 7-1 14.5-.6 21.1 1.9 6.5 2.5 11.8 7.1 15.3 13.1 4.2 7.2 5.6 15.7 5.7 23.9.1 5.2 0 10.5 0 15.7V221c0 .3-.1.7.1.8.2.2 1.2 0 1.4 0h26.6c.7 0 .7.1.7-.4.2-2.3 0-4.7 0-7V126c0-13.5 2.2-28.4 11.5-38.9 9-10.1 23.3-13.4 36.3-11.4 7 1.1 13.6 4.1 18.7 9.2 5.3 5.4 8.4 12.6 9.7 20 1.2 6.8.9 13.8.9 20.7v93.5c0 .7-.1 1.5 0 2.3.1.5 0 .4.7.4h26.6c.3 0 1.2.2 1.4 0 .2-.1.1-.5.1-.8V123.9c0-7.2.2-14.4-.8-21.6-2.1-15.4-8.7-30.3-20.6-40.6-11.2-9.3-26-13.7-40.7-13.7zM552.7 48.4c-14.1 1.5-27.4 7.5-36.4 18.7-2.8 3.6-5.2 7.5-7.1 11.6V49.9c0-.3.2-1.7 0-1.9-.1-.1-.8 0-.9 0H481c-.4 0-.4-.1-.5.2-.1.2 0 .7 0 1v169.4c0 1-.2 2.3 0 3.2.1.2 0 .2.1.3.2.1.9 0 1.1 0H505c1.3 0 2.7.2 4 0 .5-.1.3.1.3-.4.1-.6 0-1.3 0-1.9v-91c0-13 3.1-26.5 12.2-36.3 7.7-8.4 18.6-12.8 29.8-14 .3 0 1.4 0 1.5-.2V78c.1-.4 0-1 0-1.4V56.2c-.1-2.6-.1-5.2-.1-7.8zM1305 48c-5.7 0-10.9 3.6-12.9 8.9-2 5.4-.3 11.7 4.1 15.4 4.4 3.7 10.9 4.2 15.8 1.2s7.6-8.9 6.4-14.5c-1.2-6.3-7-11-13.4-11zm0 26c-5.1 0-9.8-3.3-11.6-8.1-1.8-4.9-.3-10.4 3.7-13.7 4-3.3 9.8-3.7 14.2-1.1 4.4 2.7 6.7 7.9 5.7 13-1.1 5.8-6.2 9.9-12 9.9z"></path><path class="st0" d="M1308.9 59.5c0-2.1-1.8-3.6-3.8-3.6h-2.1c-.6 0-1.5-.2-2.1 0-.4.1-.1-.1-.3.3-.1.4 0 1 0 1.3V66.4c0 .1-.1.8 0 .9.1.1 1.3.1 1.4 0 .4-.3.1-2.9.1-3.5 0-.3-.1-.8.1-.9.4-.2 1.7 0 2.1 0 .6 0 .5 0 .8.5.4.8.9 1.5 1.3 2.3.2.4.6 1.4.9 1.6.3.2 1.3 0 1.7 0-.9-1.5-1.8-3.1-2.7-4.6 1.6-.3 2.6-1.7 2.6-3.2zm-6.6 2.2c0-1.3-.2-2.7 0-3.9.1-.5 0-.4.6-.4h2.3c2.2.1 3.2 3.2.9 4.2-1.1.4-2.7.1-3.8.1zM366.6 257.7c0 6.3-4.9 11.4-11.1 11.9-1.8.1-3.7 0-5.5 0-.3 0-1.6-.2-1.8 0-.1.1 0 1 0 1.2v9.1c0 .2.2 1.2 0 1.4-.1.2-1.2 0-1.4 0h-4.6c-.2 0-.8.1-.9 0-.2-.1 0 0-.1-.2-.2-.7 0-1.9 0-2.7V249c0-.9-.2-2 0-2.9v-.3c.1-.1 1.1 0 1.2 0h11.4c5.2 0 10 2.5 11.9 7.5.6 1.4.9 2.9.9 4.4zm-7 0c0-2-1-4-2.9-4.9-1.1-.5-2.3-.5-3.6-.5h-4.3c-.8 0-.6.1-.6.9v8.3c0 .4-.2 1.4.1 1.6.2.2 1.1 0 1.4 0h2.3c1.3 0 2.7.2 4-.2 2.2-.7 3.6-2.9 3.6-5.2zM400.7 269c-1.6 0-3.3-.1-4.9 0-.5 0-.4-.1-.4.4-.1.6 0 1.4 0 2v8.8c0 .2.1 1 0 1.1-.1.2-1.2 0-1.4 0h-3.1c-.5 0-1.8.3-2.3 0-.2-.1 0 .1-.1-.2-.2-.6 0-1.8 0-2.5v-32c0-.6-.2-.7.3-.8.5-.1 1.2 0 1.7 0H403c2.9.1 5.8 1.2 7.9 3.3 4.5 4.3 4.8 11.6.5 16.2-1.1 1.1-2.3 2-3.7 2.7 2.6 4.5 5.2 8.9 7.9 13.4h-7.1c-.4 0-.4 0-.6-.2-.3-.3-.5-.9-.8-1.3-.4-.8-.9-1.5-1.3-2.3-1-1.8-2.1-3.6-3.1-5.4-.7-1.1-1.3-2.1-2-3.2zm-5.3-6.2h7c4.2 0 6.4-5 4.1-8.4-1.9-2.7-5.3-2.1-8.2-2.1h-1.9c-.2 0-.9-.1-1 0-.2.2 0 2 0 2.3v8.2zM458.8 274.6v4.5c0 .4.2 1.8 0 2.1-.1.1-.1 0-.3.1-1 .2-2.4 0-3.4 0h-16.6c-.3 0-1.4.2-1.6 0-.2-.2 0-1.5 0-1.7V248.2c0-.5-.2-1.7 0-2.2.2-.3.5-.2 1-.2h20.2c.1 0 .5-.1.6 0 .1.1 0 1.2 0 1.4v3c0 .5.2 1.7 0 2.1-.2.4-1.7.1-2.2.1h-11.2c-.2 0-1.1-.1-1.3 0-.2.1-.1.4-.1.7v5.6c0 .2-.1 1.2 0 1.3.1.1.8 0 1 0h10.9c.3 0 1.2-.2 1.4 0 .2.1.1.3.1.7v5.4c0 .4.1.4-.2.5-.4.2-1.2 0-1.6 0h-10.8c-.1 0-.7-.1-.8 0-.2.2 0 1.3 0 1.5v5.7c0 .2-.1.7 0 .8.2.1 1 0 1.1 0h13.8zM506.4 257.7c0 6.3-4.9 11.4-11.1 11.9-1.8.1-3.7 0-5.5 0-.3 0-1.6-.2-1.8 0-.1.1 0 1 0 1.2v9.1c0 .2.2 1.2 0 1.4-.1.2-1.2 0-1.4 0H482c-.2 0-.8.1-.9 0-.2-.1 0 0-.1-.2-.2-.7 0-1.9 0-2.7V249c0-.9-.2-2 0-2.9v-.3c.1-.1 1.1 0 1.2 0h11.4c5.2 0 10 2.5 11.9 7.5.6 1.4.9 2.9.9 4.4zm-7 0c0-2-1-4-2.9-4.9-1.1-.5-2.3-.5-3.6-.5h-4.3c-.8 0-.6.1-.6.9v8.3c0 .4-.2 1.4.1 1.6.2.2 1.1 0 1.4 0h2.3c1.3 0 2.7.2 4-.2 2.2-.7 3.6-2.9 3.6-5.2zM545.3 274.9h-12.5c-.3 0-1.4-.2-1.7 0-.3.2-.6 1.6-.7 2l-1.2 3.6c-.2.7-.1.8-.9.8h-6.9c1.7-4.8 3.4-9.6 5-14.4 2.3-6.5 4.6-13 6.8-19.6.1-.3.3-1.3.5-1.5.1-.1.4 0 .6 0h7.6c.6 0 .5 0 .7.6 2.1 5.9 4.2 11.9 6.2 17.8 1.3 3.6 2.5 7.2 3.8 10.7.5 1.3.9 2.6 1.4 3.9.2.7.7 1.5.8 2.2 0 .1.1.2.1.3h-6c-.3 0-1.2.2-1.5 0-.2-.1-.2-.4-.3-.6-.2-.7-.5-1.5-.7-2.2-.3-1.2-.7-2.4-1.1-3.6zm-2.2-6.5c-1.6-4.8-3.2-9.7-4.9-14.5-1.6 4.8-3.2 9.7-4.9 14.5h9.8zM588.1 269c-1.6 0-3.3-.1-4.9 0-.5 0-.4-.1-.4.4-.1.6 0 1.4 0 2v8.8c0 .2.1 1 0 1.1-.1.2-1.2 0-1.4 0h-3.1c-.5 0-1.8.3-2.3 0-.2-.1 0 .1-.1-.2-.2-.6 0-1.8 0-2.5v-32c0-.6-.2-.7.3-.8.5-.1 1.2 0 1.7 0h12.5c2.9.1 5.8 1.2 7.9 3.3 4.5 4.3 4.8 11.6.5 16.2-1.1 1.1-2.3 2-3.7 2.7 2.6 4.5 5.2 8.9 7.9 13.4h-7.1c-.4 0-.4 0-.6-.2-.3-.3-.5-.9-.8-1.3-.4-.8-.9-1.5-1.3-2.3-1-1.8-2.1-3.6-3.1-5.4-.7-1.1-1.4-2.1-2-3.2zm-5.3-6.2h7c4.2 0 6.4-5 4.1-8.4-1.9-2.7-5.3-2.1-8.2-2.1h-1.9c-.2 0-.9-.1-1 0-.2.2 0 2 0 2.3v8.2zM644.9 274.9h-12.5c-.3 0-1.4-.2-1.7 0-.3.2-.6 1.6-.7 2l-1.2 3.6c-.2.7-.1.8-.9.8H621c1.7-4.8 3.4-9.6 5-14.4 2.3-6.5 4.6-13 6.8-19.6.1-.3.3-1.3.5-1.5.1-.1.4 0 .6 0h7.6c.6 0 .5 0 .7.6 2.1 5.9 4.2 11.9 6.2 17.8 1.3 3.6 2.5 7.2 3.8 10.7.5 1.3.9 2.6 1.4 3.9.2.7.7 1.5.8 2.2 0 .1.1.2.1.3h-6c-.3 0-1.2.2-1.5 0-.2-.1-.2-.4-.3-.6-.2-.7-.5-1.5-.7-2.2-.3-1.2-.7-2.4-1.1-3.6zm-2.2-6.5c-1.6-4.8-3.2-9.7-4.9-14.5-1.6 4.8-3.2 9.7-4.9 14.5h9.8zM696.3 252.5h-8.5c-.2 0-.9-.1-1 0-.1.1-.1.4-.1.6v22.5c0 1.7.1 3.5 0 5.3 0 .5.1.3-.2.4-.4.1-1.1 0-1.5 0h-4.3c-.1 0-.9.1-1.1 0-.1-.1 0-.6 0-.8V254.6c0-.6.1-1.3 0-1.9-.1-.4.1-.3-.4-.3-1.1-.2-2.3 0-3.4 0h-4.3c-.4 0-1.3.2-1.5-.1-.1-.3 0-1 0-1.2v-4.2c0-.1-.1-1 0-1.1.1-.1.8 0 .9 0H695.6c.5 0 .4-.1.6.3.1.4 0 1.1 0 1.5v2.3c.1.8.1 1.7.1 2.6zM724.5 245.8v28c0 2.3.2 4.8 0 7.2v.4c-.1.1-1 0-1.2 0-1.8 0-3.7.2-5.4 0-.6-.1-.4-.2-.4-.8v-33.9c0-.2-.1-.6 0-.7.1-.2-.1 0 .2-.1.6-.2 1.7 0 2.4 0h2.9c.5-.1 1-.1 1.5-.1zM747.4 263.5c0-7.4 4.6-14.2 11.6-16.7s15.1-.4 19.9 5.4c4.7 5.7 5.3 14.1 1.5 20.5s-11.5 9.7-18.8 8.2c-8.3-1.6-14.2-9-14.2-17.4zm28.8 0c0-4.7-2.7-9-7.2-10.6-4.3-1.5-9.4-.3-12.4 3.2-3 3.6-3.4 9.2-1 13.2 2.3 4 7.1 5.9 11.6 5.1 5.4-.8 9-5.5 9-10.9zM833.4 245.8v35c0 .5.1.4-.2.5-.4.2-1.4 0-1.8 0H829c-.7 0-.7.1-1.1-.3-.5-.6-.8-1.2-1.3-1.8-1.6-2.3-3.2-4.6-4.9-6.9-3-4.2-5.9-8.4-8.9-12.7v20.6c0 .2.1.9 0 1-.1.1-.8 0-1.1 0h-4.8c-.2 0-.8.1-1 0-.3-.2-.1-.9-.1-1.3V246.6c0-.9-.2-.9.8-.9h3.3c.3 0 .9-.1 1.2 0 .2.1.4.6.5.8.4.5.7 1.1 1.1 1.6 4.4 6.3 8.8 12.5 13.2 18.8.1.2.2.3.3.5v-21.1c0-.4-.1-.4.2-.6.4-.1 1.1 0 1.5 0h2.3c1.1.1 2.2.1 3.2.1zM855.3 272.9c1.9-1.1 3.8-2.2 5.8-3.4 1.1 2.8 3.2 4.7 6.2 5.1 2.3.3 6.3.2 7-2.7.6-2.3-1.3-3.7-3.2-4.5-2.9-1.2-6.1-1.7-9-3.2-2.5-1.3-4.6-3.3-5.2-6.1-.7-3 0-6.2 2-8.6 3.9-4.7 11.6-5 16.5-1.8 1.4.9 2.7 2.2 3.6 3.6.2.3 1.2 1.6 1.1 1.9 0 .1-.6.3-.7.4-1.7 1-3.3 1.9-5 2.9-1.1-2.4-3-4.1-5.6-4.3-2.4-.2-5.5.6-5.4 3.5.1 1.9 1.6 2.8 3.2 3.5 2.5 1.1 5.3 1.7 7.8 2.7 2.1.9 4.2 2.2 5.5 4.2 1.3 2.1 1.5 4.9.9 7.4-1.3 5.1-6.4 7.5-11.3 7.7-6.1.3-12-2.4-14.2-8.3zM940.5 252.5v7.6c0 .8-.1.8.7.8h12.6c.1 0 .5-.1.5 0 .1.1 0 1 0 1.2v4.6c0 .9.1.9-.7.9H941c-.6 0-.5.1-.5.7v9.1c0 1.2.1 2.4 0 3.5v.4c-.2.2-1.2 0-1.4 0h-4.7c-.6 0-.7.2-.8-.3-.1-.6 0-1.3 0-1.9v-32.9c0-.3-.1-.4.1-.5.4-.2 1.8 0 2.2 0H953.6c.3 0 1.1-.1 1.2.1.2.2 0 1.2 0 1.4v2.5c0 .4.3 2.5 0 2.8-.1.1-.7 0-.9 0H940.5zM976.2 263.5c0-7.4 4.6-14.2 11.6-16.7s15.1-.4 19.9 5.4c4.7 5.7 5.3 14.1 1.5 20.5s-11.5 9.7-18.8 8.2c-8.3-1.6-14.2-9-14.2-17.4zm28.7 0c0-4.7-2.7-9-7.2-10.6-4.3-1.5-9.4-.3-12.4 3.2-3 3.6-3.4 9.2-1 13.2 2.3 4 7.1 5.9 11.6 5.1 5.4-.8 9-5.5 9-10.9zM1046.9 269c-1.6 0-3.3-.1-4.9 0-.5 0-.4-.1-.4.4-.1.6 0 1.4 0 2v8.8c0 .2.1 1 0 1.1-.1.2-1.2 0-1.4 0h-3.1c-.5 0-1.8.3-2.3 0-.2-.1 0 .1-.1-.2-.2-.6 0-1.8 0-2.5v-32c0-.6-.2-.7.3-.8.5-.1 1.2 0 1.7 0h12.5c2.9.1 5.8 1.2 7.9 3.3 4.5 4.3 4.8 11.6.5 16.2-1.1 1.1-2.3 2-3.7 2.7 2.6 4.5 5.2 8.9 7.9 13.4h-7.1c-.4 0-.4 0-.6-.2-.3-.3-.5-.9-.8-1.3-.4-.8-.9-1.5-1.3-2.3-1-1.8-2.1-3.6-3.1-5.4-.8-1.1-1.4-2.1-2-3.2zm-5.4-6.2h7c4.2 0 6.4-5 4.1-8.4-1.9-2.7-5.3-2.1-8.2-2.1h-1.9c-.2 0-.9-.1-1 0-.2.2 0 2 0 2.3v8.2zM1134.9 274.6v4.5c0 .4.2 1.8 0 2.1-.1.1-.1 0-.3.1-1 .2-2.4 0-3.4 0h-16.6c-.3 0-1.4.2-1.6 0-.2-.2 0-1.5 0-1.7V248.2c0-.5-.2-1.7 0-2.2.2-.3.5-.2 1-.2h20.2c.1 0 .5-.1.6 0 .1.1 0 1.2 0 1.4v3c0 .5.2 1.7 0 2.1-.2.4-1.7.1-2.2.1h-11.2c-.2 0-1.1-.1-1.3 0-.2.1-.1.4-.1.7v5.6c0 .2-.1 1.2 0 1.3.1.1.8 0 1 0h10.9c.3 0 1.2-.2 1.4 0 .2.1.1.3.1.7v5.4c0 .4.1.4-.2.5-.4.2-1.2 0-1.6 0h-10.8c-.1 0-.7-.1-.8 0-.2.2 0 1.3 0 1.5v5.7c0 .2-.1.7 0 .8.2.1 1 0 1.1 0h13.8zM1176.2 281.3c-2.3-3.9-4.6-7.7-6.9-11.6-1.5 2.6-3.1 5.2-4.6 7.8-.5.8-.9 1.5-1.4 2.3-.2.4-.5 1-.8 1.3-.5.5-2.2.2-2.9.2h-5.1l9.3-15.6c.3-.5.6-1 .9-1.6.1-.2.5-.6.5-.9.1-.4-.3-.8-.5-1.2-1.8-3-3.5-5.9-5.3-8.9-1.5-2.5-2.9-4.9-4.4-7.4h6.7c.3 0 1-.1 1.2 0 .2.1.3.6.4.7.4.6.7 1.2 1.1 1.8 1 1.6 2 3.3 2.9 4.9.6 1.1 1.3 2.1 1.9 3.2l4.5-7.5c.4-.7.8-1.4 1.2-2 .2-.3.4-.9.6-1.1.2-.1.5-.1.7-.1h7.2c-3.1 5.2-6.2 10.4-9.3 15.5-.2.4-1 1.3-1 1.7 0 .5.8 1.4 1.1 1.8 1.9 3.1 3.7 6.2 5.6 9.3 1.4 2.4 2.9 4.8 4.3 7.2-2.6.2-5.3.2-7.9.2zM1226 274.9h-12.5c-.3 0-1.4-.2-1.7 0-.3.2-.6 1.6-.7 2l-1.2 3.6c-.2.7-.1.8-.9.8h-6.9c1.7-4.8 3.4-9.6 5-14.4 2.3-6.5 4.6-13 6.8-19.6.1-.3.3-1.3.5-1.5.1-.1.4 0 .6 0h7.6c.6 0 .5 0 .7.6 2.1 5.9 4.2 11.9 6.2 17.8 1.3 3.6 2.5 7.2 3.8 10.7.5 1.3.9 2.6 1.4 3.9.2.7.7 1.5.8 2.2 0 .1.1.2.1.3h-6c-.3 0-1.2.2-1.5 0-.2-.1-.2-.4-.3-.6-.2-.7-.5-1.5-.7-2.2-.3-1.2-.7-2.4-1.1-3.6zm-2.2-6.5c-1.6-4.8-3.2-9.7-4.9-14.5-1.6 4.8-3.2 9.7-4.9 14.5h9.8zM1291.3 281.3h-6.4c-.6 0-.5.1-.5-.4-.1-.7 0-1.4 0-2.1v-20.6c-3 4.9-6 9.9-9 14.8-.2.4-.6 1.5-1 1.7-.8.4-1.1-.5-1.4-1l-5.1-8.4c-1.4-2.3-2.9-4.7-4.3-7v22.2c0 .1.1.7 0 .8-.1.1-1 0-1.2 0h-4.6c-.2 0-.8.1-1 0-.3-.1 0 .1-.2-.2-.1-.2 0-.7 0-1V254.4c0-2.7-.2-5.5 0-8.2v-.4c.2-.2 1.3 0 1.6 0h3.2c.6 0 1.7-.2 2.3 0 .5.2.9 1.3 1.2 1.7 1 1.6 1.9 3.2 2.9 4.8 2 3.2 3.9 6.4 5.9 9.6.1.2.2.4.4.6l6.9-11.4c.7-1.1 1.3-2.2 2-3.3.4-.6.7-1.4 1.2-1.9.3-.3.6-.2 1.2-.2h4.2c.3 0 1.8-.2 2 0 .1.1 0 .8 0 1V269.5c-.3 3.9-.3 7.9-.3 11.8zM689.7 170.8c-4.5 7.4-11.2 13.4-18.9 17.4-9.1 4.8-19.5 6.8-29.8 6.7-9.1-.1-18.2-1.7-26.5-5.3-7.7-3.3-14.6-8.3-20.1-14.7-5.7-6.7-9.5-14.8-11.6-23.3-.3-1.1-.5-2.3-.7-3.4h137.2c.3 0 .8.1 1.2 0h.2c.2-.1-.8 2.3.1-.4.3-1.1.3-2.4.5-3.5.5-4.2.6-8.4.4-12.6-.2-6.4-1.1-12.8-2.6-19.1-2.9-12.1-8.2-23.6-15.8-33.5-7.4-9.7-17-17.7-28-23.1-11.9-5.8-25.2-8.4-38.4-8-12.9.3-25.8 3.1-37.4 8.7-10.8 5.2-20.4 12.8-27.9 22.1-7.6 9.4-13 20.5-16 32.2-3.2 12.4-3.8 25.6-1.9 38.3 1.7 11.9 5.8 23.5 12.1 33.7 6.2 9.9 14.6 18.4 24.4 24.8 10.4 6.8 22.3 11 34.5 13 14.2 2.2 29.1 1.7 43-2.2 12.9-3.6 24.9-10.2 34.6-19.5 4.5-4.3 8.5-9.1 11.8-14.4-7.1-4.1-14.3-8.1-21.4-12.2-.9-.6-1.9-1.1-3-1.7zm-50.3-95.7c9.5 0 19.1 2.3 27.4 7.1 8.7 5.1 15.7 12.7 20.1 21.8 2.9 6 4.8 12.5 5.8 19.1H583.8c-.4 0-1.1.2-1.5 0h-.2c1.7-10.5 5.8-20.6 12.7-28.7 6.7-7.9 15.6-13.6 25.5-16.6 6.2-1.8 12.7-2.7 19.1-2.7z"></path><path class="st1" d="M178.4 69.2c-14 0-26.8 8.9-31.6 22.1-4.9 13.3-.7 28.5 10.1 37.6 10.8 9 26.6 10.2 38.7 3 12.1-7.2 18.5-21.6 15.8-35.4-2.7-13.7-14-24.7-27.8-26.8-1.7-.4-3.4-.5-5.2-.5zM608.7 34.8c8.9-5.1 19-7.5 29.2-7.7 5.3-.1 10.6.4 15.8 1.8 2.6.7 5.1 1.5 7.6 2.6 1.2.5 2.3 1 3.5 1.6.6.3 1.1.6 1.7.9.4.2.9.7 1.4.8.8.2 1.9 0 2.8 0H706c-5.7-8.3-12.9-15.6-21.2-21.3-8.6-5.8-18.3-9.9-28.5-11.9-11.1-2.2-22.6-2.2-33.7-.3-10.4 1.8-20.4 5.4-29.5 10.8-8.6 5.1-16.1 11.8-22.3 19.6-.8 1-1.5 2-2.2 3h35.1c1.8.1 3.4.1 5 .1z"></path></svg>